<?xml version="1.0" standalone="no"?>
<!DOCTYPE svg PUBLIC "-//W3C//DTD SVG 20010904//EN"
 "http://www.w3.org/TR/2001/REC-SVG-20010904/DTD/svg10.dtd">
<svg version="1.0" xmlns="http://www.w3.org/2000/svg"
 width="1280.000000pt" height="866.000000pt" viewBox="0 0 1280.000000 866.000000"
 preserveAspectRatio="xMidYMid meet">
<metadata>
Created by potrace 1.16, written by Peter Selinger 2001-2019
</metadata>
<g transform="translate(0.000000,866.000000) scale(0.100000,-0.100000)"
fill="#000000" stroke="none">
<path d="M0 4330 l0 -4330 6400 0 6400 0 0 4330 0 4330 -6400 0 -6400 0 0
-4330z m5845 3063 c44 -16 96 -39 115 -51 19 -12 49 -29 65 -38 35 -20 77 -55
160 -133 33 -32 89 -81 125 -109 36 -28 73 -59 83 -68 11 -9 49 -30 85 -47 60
-29 77 -32 157 -32 76 0 99 4 146 27 231 107 495 15 667 -235 26 -38 53 -80
60 -94 8 -14 34 -39 59 -56 58 -42 140 -57 242 -47 42 5 168 16 281 26 203 17
207 16 352 -5 81 -12 168 -30 193 -41 26 -11 51 -20 56 -20 11 0 137 -59 154
-72 125 -95 178 -144 229 -211 120 -159 181 -296 228 -512 19 -82 23 -132 23
-275 0 -184 -12 -276 -60 -445 -13 -44 -26 -98 -30 -120 -4 -22 -11 -45 -15
-50 -5 -6 -13 -35 -18 -65 -6 -30 -19 -93 -31 -140 -54 -222 -51 -483 9 -600
11 -22 20 -44 20 -49 0 -11 46 -87 68 -111 51 -58 84 -91 130 -129 50 -41 119
-91 126 -91 2 0 33 -18 67 -40 35 -22 80 -47 99 -55 19 -9 37 -19 40 -23 3 -5
32 -23 65 -41 81 -45 245 -169 245 -184 0 -5 13 -21 28 -37 51 -51 103 -164
114 -247 11 -96 -3 -234 -32 -299 -66 -147 -133 -257 -180 -296 -11 -9 -20
-19 -20 -23 0 -8 -54 -61 -106 -105 -131 -111 -222 -172 -359 -238 -253 -123
-407 -155 -815 -172 -299 -13 -552 -28 -680 -40 -58 -5 -172 -15 -255 -20 -82
-6 -202 -18 -265 -26 -63 -9 -153 -19 -200 -23 -211 -20 -405 -44 -523 -67
-76 -14 -163 -24 -217 -24 -82 0 -95 -3 -147 -32 -32 -17 -76 -41 -98 -53 -22
-12 -56 -32 -75 -43 -42 -25 -190 -109 -309 -175 -150 -83 -443 -224 -531
-257 -47 -17 -99 -37 -117 -45 -34 -15 -220 -65 -268 -72 -16 -3 -65 -11 -109
-19 -222 -40 -541 2 -743 97 -34 16 -66 29 -72 29 -6 0 -11 4 -11 9 0 5 -10
13 -22 17 -51 16 -139 83 -229 174 -90 91 -107 112 -141 180 -6 14 -20 36 -29
50 -20 30 -56 126 -69 185 -5 22 -16 65 -25 95 -9 30 -20 98 -26 150 -5 52
-13 124 -19 160 -5 36 -14 117 -20 180 -6 63 -14 129 -19 145 -5 17 -14 57
-20 90 -36 186 -89 291 -187 371 -38 31 -77 64 -86 73 -31 29 -50 44 -112 85
-33 22 -63 43 -66 46 -3 3 -23 17 -45 30 -22 13 -42 26 -45 29 -5 7 -16 13
-135 80 -44 25 -81 49 -83 53 -2 4 -9 8 -15 8 -6 0 -52 23 -102 52 -226 129
-333 253 -389 446 -31 107 -35 226 -10 312 9 30 19 71 23 90 12 52 61 167 77
181 8 6 14 18 14 25 0 15 68 117 82 122 4 2 8 8 8 14 0 17 183 190 246 233 32
22 61 42 64 46 21 26 167 106 530 292 69 35 148 78 175 95 28 17 64 39 80 48
138 77 326 226 416 330 94 109 82 91 163 239 9 17 16 36 16 43 0 7 8 27 17 45
9 18 20 55 24 82 18 141 39 322 48 425 18 212 74 368 194 533 41 57 90 104
207 200 16 14 63 41 100 59 14 7 27 16 30 20 9 12 138 67 229 97 139 46 190
59 301 77 58 9 137 22 175 30 46 8 125 12 230 10 150 -3 165 -5 240 -33z"/>
<path d="M5465 7370 c-70 -14 -184 -30 -217 -30 -17 0 -61 -9 -97 -19 -36 -11
-84 -22 -107 -26 -45 -7 -110 -28 -120 -38 -4 -4 -14 -7 -21 -7 -8 0 -39 -11
-69 -25 -30 -14 -58 -25 -62 -25 -7 0 -76 -37 -141 -75 -96 -57 -241 -193
-288 -270 -74 -121 -115 -226 -137 -349 -18 -98 -15 -129 3 -44 16 73 33 128
48 158 7 14 13 30 13 36 0 18 59 131 75 144 8 7 15 17 15 22 0 30 131 167 220
230 70 49 252 148 273 148 7 0 31 8 53 19 21 10 55 22 74 26 19 3 62 15 95 25
130 39 368 77 545 87 62 4 88 8 75 14 -25 10 -177 9 -230 -1z"/>
<path d="M5470 7289 c-36 -4 -92 -12 -125 -19 -33 -6 -89 -15 -125 -21 -35 -5
-87 -17 -115 -25 -27 -9 -66 -20 -85 -24 -99 -24 -330 -129 -359 -164 -8 -9
-18 -16 -23 -16 -35 0 -238 -203 -238 -238 0 -5 -7 -15 -15 -22 -16 -14 -75
-127 -75 -145 0 -7 -9 -33 -21 -59 -11 -26 -19 -52 -17 -58 2 -6 10 4 17 23
23 59 56 124 64 127 4 2 7 10 7 17 0 17 70 125 81 125 5 0 9 5 9 11 0 7 10 22
23 34 12 13 27 29 33 37 45 55 184 153 284 201 107 51 331 128 372 127 10 0
50 9 90 19 40 11 102 22 138 26 36 3 99 13 140 21 41 7 113 18 160 23 l85 8
-120 0 c-66 0 -149 -3 -185 -8z"/>
<path d="M5550 7214 c-237 -33 -361 -57 -450 -85 -36 -11 -94 -29 -130 -40
-97 -30 -307 -144 -355 -193 -7 -7 -26 -23 -41 -37 -34 -28 -112 -121 -139
-164 -37 -59 -85 -153 -85 -166 0 -8 14 13 31 45 51 96 158 225 247 297 79 64
242 154 322 178 19 6 67 20 105 32 92 29 172 46 375 80 36 6 97 17 136 25 39
7 132 15 207 16 74 2 126 6 116 10 -41 16 -235 17 -339 2z"/>
<path d="M5705 7150 c-27 -4 -84 -13 -125 -19 -41 -7 -113 -19 -160 -26 -175
-27 -228 -38 -325 -68 -99 -30 -285 -104 -295 -117 -3 -4 -21 -15 -40 -25 -87
-45 -219 -169 -281 -265 l-29 -45 32 40 c54 67 180 186 233 220 59 38 239 125
259 125 7 0 33 9 57 19 46 21 188 54 324 76 44 8 103 19 130 25 28 6 100 15
160 21 61 5 132 14 158 19 26 6 74 11 105 11 l57 2 -55 7 c-67 10 -139 10
-205 0z"/>
<path d="M5725 7070 c-49 -4 -135 -17 -190 -28 -55 -11 -128 -23 -163 -26 -54
-6 -153 -30 -332 -80 -99 -28 -314 -138 -332 -170 -5 -9 -15 -16 -23 -16 -8 0
-20 -10 -26 -22 -9 -16 1 -12 39 18 55 43 101 71 147 90 62 25 201 76 230 84
133 35 395 83 535 99 47 6 121 17 165 25 44 9 132 17 195 17 98 2 107 3 60 9
-67 10 -185 9 -305 0z"/>
<path d="M5785 6990 c-55 -9 -140 -23 -190 -29 -177 -24 -281 -40 -320 -51
-22 -6 -69 -17 -105 -25 -74 -14 -134 -35 -126 -43 3 -2 40 5 83 16 83 22 219
45 401 67 61 8 138 19 170 25 31 6 109 18 172 27 204 27 217 30 110 31 -52 0
-140 -8 -195 -18z"/>
<path d="M5945 6930 c-44 -3 -136 -16 -205 -28 -133 -22 -316 -50 -415 -62
-72 -9 -208 -40 -202 -46 2 -2 28 0 58 6 30 6 74 15 99 20 25 5 90 12 145 15
55 3 147 13 205 21 58 9 139 19 180 24 41 5 108 16 149 25 40 9 106 20 145 24
l71 8 -75 0 c-41 0 -111 -3 -155 -7z"/>
<path d="M6050 6864 c-36 -8 -96 -18 -135 -23 -38 -6 -110 -17 -160 -25 -49
-8 -144 -20 -210 -26 -267 -25 -282 -37 -25 -20 216 14 347 27 400 40 25 5 79
17 120 25 41 7 95 21 120 29 l45 14 -45 0 c-25 0 -74 -7 -110 -14z"/>
<path d="M4940 6815 c-25 -13 -38 -24 -29 -25 8 0 19 4 25 9 5 5 29 16 54 25
33 11 38 15 20 15 -14 0 -45 -11 -70 -24z"/>
<path d="M6180 6808 c-47 -10 -116 -26 -155 -35 -79 -17 -219 -37 -375 -53
-153 -16 -145 -21 25 -16 163 5 367 35 447 67 27 10 60 19 73 19 13 0 27 5 30
10 3 6 15 10 25 10 10 0 22 5 25 10 7 12 11 12 -95 -12z"/>
<path d="M6285 6765 c-167 -58 -365 -105 -447 -106 -35 0 -85 -4 -113 -8 l-50
-7 80 -6 c158 -13 308 16 495 94 97 41 120 62 35 33z"/>
<path d="M6290 6691 c-178 -78 -311 -111 -437 -111 -49 0 -83 -4 -83 -10 0 -6
49 -10 126 -10 114 0 137 3 223 31 53 17 103 36 111 43 8 6 33 21 54 31 66 34
76 39 76 47 0 10 6 12 -70 -21z"/>
<path d="M4609 6683 l-24 -28 28 24 c25 23 32 31 24 31 -2 0 -14 -12 -28 -27z"/>
<path d="M6530 6685 c-29 -30 -85 -76 -132 -107 -27 -17 -48 -34 -48 -38 0
-12 -146 -80 -205 -95 -127 -32 -340 -11 -535 54 -235 79 -422 116 -525 105
-106 -12 -234 -63 -325 -130 -57 -42 -158 -146 -188 -193 -9 -14 -20 -28 -23
-31 -4 -3 -30 -50 -57 -105 -96 -194 -126 -349 -125 -635 1 -107 6 -222 12
-255 6 -33 15 -114 21 -180 5 -66 16 -169 25 -230 10 -73 15 -194 16 -360 0
-254 -1 -263 -46 -455 -22 -96 -74 -221 -135 -325 -16 -27 -32 -57 -36 -65
-12 -23 -76 -124 -83 -130 -8 -6 -26 -35 -51 -82 -11 -20 -25 -40 -30 -43 -6
-4 -15 -17 -20 -28 -5 -12 -23 -44 -40 -72 -28 -47 -79 -148 -113 -225 -8 -19
-27 -75 -43 -125 -26 -85 -28 -100 -28 -285 -1 -177 1 -201 22 -260 12 -36 27
-81 34 -100 20 -64 81 -184 119 -236 49 -66 150 -138 219 -154 60 -14 156 -9
215 12 45 16 151 83 247 156 79 61 227 157 253 165 11 3 47 15 79 26 157 55
351 9 567 -135 88 -58 200 -113 254 -124 22 -4 74 -16 115 -26 65 -16 119 -18
420 -18 325 1 420 6 606 35 l72 11 28 57 c45 92 79 180 108 281 16 52 34 113
42 135 7 22 20 65 28 95 24 91 67 201 109 280 117 221 223 308 492 403 127 45
140 49 199 68 196 64 339 176 409 319 20 41 37 83 37 92 0 10 9 41 20 70 10
29 24 80 30 113 5 33 15 80 21 105 7 25 14 111 16 192 4 131 2 154 -16 206
-12 32 -21 65 -21 73 0 18 -56 124 -89 169 -38 51 -99 107 -161 149 -30 20
-61 41 -68 48 -7 6 -28 17 -47 24 -19 7 -35 16 -35 20 0 4 -13 10 -29 14 -16
3 -43 17 -62 31 -18 13 -37 24 -42 24 -5 0 -22 10 -37 23 -16 12 -50 38 -76
57 -56 42 -139 146 -176 220 -92 190 -117 325 -148 795 -6 88 -20 203 -32 255
l-22 96 -125 -4 c-150 -5 -334 12 -412 39 -31 10 -61 19 -68 19 -31 0 -230
110 -239 132 -2 4 -9 8 -16 8 -7 0 -32 20 -57 45 -24 24 -46 45 -49 45 -3 0
-12 -7 -20 -15z"/>
<path d="M6358 6636 c-13 -13 -58 -35 -168 -83 -56 -25 -121 -40 -220 -51
l-55 -6 65 -6 c99 -9 273 45 341 106 8 8 20 14 25 14 5 0 15 9 22 20 14 23 10
26 -10 6z"/>
<path d="M4261 6454 c0 -11 3 -14 6 -6 3 7 2 16 -1 19 -3 4 -6 -2 -5 -13z"/>
<path d="M8621 6408 c58 -29 123 -66 145 -83 58 -45 164 -150 164 -163 0 -7 4
-12 10 -12 5 0 24 -24 42 -53 18 -29 39 -62 46 -73 40 -61 107 -224 122 -299
5 -22 18 -76 29 -120 17 -67 21 -112 21 -275 0 -201 -8 -260 -66 -500 -23 -96
-54 -315 -53 -373 l2 -52 7 45 c5 25 13 78 20 117 6 40 20 98 31 129 10 32 19
66 19 77 0 11 9 50 19 86 80 272 101 445 82 679 -13 159 -61 333 -118 432 -8
14 -20 39 -28 56 -8 17 -21 36 -29 44 -9 7 -16 17 -16 23 0 15 -105 134 -152
173 -24 19 -52 43 -63 52 -31 28 -201 112 -225 112 -12 0 -29 4 -38 9 -9 4
-30 11 -47 15 -16 3 18 -18 76 -46z"/>
<path d="M8435 6407 c11 -8 31 -18 45 -22 14 -4 32 -13 40 -20 8 -6 34 -23 58
-35 23 -13 42 -27 42 -32 0 -4 5 -8 11 -8 32 0 212 -199 258 -285 12 -22 25
-47 30 -55 29 -47 101 -222 101 -247 0 -10 9 -44 20 -77 11 -32 25 -111 31
-175 13 -128 7 -409 -11 -506 -6 -33 -16 -85 -21 -115 -6 -30 -12 -122 -14
-205 -1 -82 -1 -132 1 -110 5 55 41 262 64 370 56 262 75 395 67 482 -19 196
-55 364 -105 483 -99 237 -232 387 -442 500 -43 23 -107 48 -170 65 -24 7 -24
6 -5 -8z"/>
<path d="M4182 6380 c0 -14 2 -19 5 -12 2 6 2 18 0 25 -3 6 -5 1 -5 -13z"/>
<path d="M8355 6356 c22 -14 58 -35 79 -48 54 -32 156 -116 192 -158 78 -90
124 -159 179 -270 128 -259 185 -591 154 -895 -16 -152 -17 -373 -2 -465 10
-64 10 -63 12 65 3 147 11 241 34 365 33 181 29 471 -8 630 -38 165 -113 343
-189 449 -17 24 -35 50 -41 58 -19 30 -160 163 -171 163 -6 0 -17 7 -24 15
-16 19 -214 115 -237 115 -11 -1 -3 -10 22 -24z"/>
<path d="M8170 6365 c0 -3 18 -14 39 -25 148 -75 300 -212 378 -341 16 -25 34
-54 40 -65 35 -53 123 -247 123 -269 0 -8 9 -38 20 -66 52 -131 77 -310 90
-649 11 -292 27 -408 29 -220 1 63 7 174 13 245 6 72 11 153 11 180 0 84 -23
297 -39 360 -8 33 -19 76 -24 95 -7 31 -37 114 -69 195 -7 17 -22 48 -33 70
-12 22 -27 52 -35 66 -7 15 -20 32 -28 39 -8 7 -15 18 -15 25 0 13 -166 187
-205 215 -47 35 -104 67 -160 91 -118 52 -135 59 -135 54z"/>
<path d="M8094 6323 c16 -8 34 -19 40 -24 6 -5 47 -38 92 -73 81 -65 152 -138
182 -188 9 -16 20 -28 24 -28 4 0 8 -6 8 -14 0 -7 7 -19 16 -26 8 -8 23 -30
33 -49 64 -127 91 -183 91 -192 0 -5 7 -24 17 -42 9 -18 20 -45 24 -62 4 -16
16 -55 27 -85 49 -135 90 -334 102 -505 6 -72 15 -155 20 -185 20 -114 37
-190 45 -198 4 -4 5 7 1 23 -3 17 -8 140 -10 275 -4 191 -10 268 -26 348 -11
57 -20 114 -20 127 0 23 -30 126 -73 250 -22 65 -71 169 -105 225 -12 19 -30
51 -41 70 -11 19 -38 55 -60 80 -22 25 -44 50 -49 55 -41 45 -169 145 -186
145 -9 0 -16 4 -16 8 0 8 -142 82 -157 82 -4 -1 5 -8 21 -17z"/>
<path d="M7997 6305 c3 -8 9 -15 13 -15 4 0 45 -35 90 -77 83 -78 173 -183
221 -258 40 -62 169 -338 169 -361 0 -5 9 -31 19 -59 46 -117 133 -449 156
-590 4 -22 16 -71 27 -110 12 -38 22 -76 25 -84 2 -8 6 -11 9 -8 4 3 1 34 -5
69 -5 35 -15 113 -21 173 -16 168 -35 278 -68 410 -44 168 -55 205 -75 244 -9
19 -17 39 -17 46 0 15 -107 225 -126 246 -8 8 -14 19 -14 23 0 12 -116 150
-153 182 -114 97 -261 196 -250 169z"/>
<path d="M7830 6285 c0 -5 18 -32 40 -61 22 -29 40 -57 40 -63 0 -5 4 -11 8
-13 10 -4 92 -129 125 -190 37 -68 43 -80 64 -128 50 -110 63 -139 88 -205 14
-38 35 -90 45 -115 11 -25 31 -76 45 -115 14 -38 35 -89 45 -113 11 -23 20
-51 20 -62 0 -10 4 -21 8 -24 5 -3 26 -45 47 -93 41 -92 141 -279 154 -288 5
-2 -8 39 -29 93 -44 117 -67 182 -85 242 -19 69 -85 256 -132 380 -14 36 -31
81 -38 101 -16 41 -109 234 -128 263 -6 11 -28 44 -47 74 -19 30 -39 62 -45
70 -5 9 -17 23 -26 32 -9 8 -48 53 -86 100 -73 88 -113 129 -113 115z"/>
<path d="M7927 6275 c6 -11 21 -29 33 -40 32 -28 170 -202 170 -214 0 -5 4
-11 9 -13 9 -3 121 -193 121 -204 0 -4 15 -37 66 -151 13 -28 24 -58 24 -66 0
-7 10 -33 22 -58 11 -24 25 -57 29 -74 10 -40 90 -275 100 -297 5 -10 17 -48
28 -85 11 -37 31 -99 46 -138 15 -38 33 -88 41 -109 20 -51 44 -87 44 -64 0 9
-4 19 -8 22 -5 3 -14 31 -21 63 -7 32 -21 95 -32 140 -10 45 -19 92 -19 104 0
12 -9 49 -19 83 -26 82 -63 215 -68 246 -3 14 -12 41 -20 60 -9 19 -20 48 -24
65 -24 95 -113 277 -222 450 -12 19 -232 240 -259 260 -7 6 -22 17 -32 25 -18
14 -19 14 -9 -5z"/>
<path d="M7835 6130 c112 -229 115 -234 115 -245 0 -5 12 -32 25 -60 14 -27
25 -57 25 -66 0 -8 4 -19 9 -25 5 -5 19 -36 31 -69 42 -112 68 -180 95 -245
15 -36 33 -78 39 -95 33 -85 121 -244 181 -327 17 -22 35 -48 40 -56 6 -8 22
-28 37 -44 23 -25 18 -11 -25 75 -71 142 -115 243 -167 382 -12 33 -31 79 -41
103 -10 23 -19 47 -19 53 0 6 -6 25 -14 42 -8 18 -31 73 -51 122 -20 50 -43
101 -50 115 -7 14 -20 41 -29 60 -24 52 -88 164 -96 170 -7 4 -29 41 -64 105
-12 22 -93 134 -108 150 -6 6 25 -60 67 -145z"/>
<path d="M7660 6215 c0 -5 5 -17 10 -25 5 -8 10 -10 10 -5 0 6 -5 17 -10 25
-5 8 -10 11 -10 5z"/>
<path d="M7733 6190 c3 -14 15 -54 28 -90 41 -119 56 -164 128 -380 137 -416
211 -559 378 -729 l74 -76 -37 60 c-21 33 -45 69 -54 80 -26 33 -160 313 -160
334 0 6 -9 28 -20 48 -11 21 -20 43 -20 50 0 7 -11 36 -24 65 -14 29 -34 80
-46 113 -12 33 -33 83 -46 111 -13 28 -24 56 -24 63 0 7 -8 29 -19 49 -42 82
-71 148 -71 158 0 6 -6 17 -14 23 -8 7 -17 24 -21 39 -3 15 -17 45 -31 67 -21
32 -25 35 -21 15z"/>
<path d="M7612 6160 c0 -14 2 -19 5 -12 2 6 2 18 0 25 -3 6 -5 1 -5 -13z"/>
<path d="M7686 6120 c3 -30 15 -92 25 -138 10 -45 19 -94 19 -107 0 -46 70
-310 113 -425 34 -90 112 -248 132 -265 6 -5 26 -28 43 -51 38 -50 193 -181
167 -141 -9 15 -21 27 -25 27 -11 0 -110 148 -110 165 0 8 -3 15 -8 15 -4 0
-25 37 -46 83 -22 45 -50 104 -63 131 -12 28 -23 59 -23 71 0 12 -4 25 -8 31
-12 12 -20 35 -102 294 -40 124 -83 257 -96 295 l-24 70 6 -55z"/>
<path d="M7626 6060 c3 -41 9 -138 14 -215 5 -77 14 -160 19 -185 5 -25 14
-74 21 -110 16 -92 102 -310 121 -310 4 0 10 -8 13 -18 3 -10 31 -42 61 -72
66 -66 70 -69 120 -99 l40 -24 -31 34 c-48 54 -94 116 -94 128 0 6 -3 11 -7
11 -19 0 -91 162 -137 305 -42 131 -109 425 -121 533 -10 89 -24 106 -19 22z"/>
<path d="M4312 5350 c0 -14 2 -19 5 -12 2 6 2 18 0 25 -3 6 -5 1 -5 -13z"/>
<path d="M4151 5308 c0 -9 -4 -25 -7 -35 -5 -17 -5 -17 6 0 6 10 9 25 7 35 -4
15 -5 15 -6 0z"/>
<path d="M4197 5235 c-4 -27 -12 -84 -16 -126 -17 -142 -79 -446 -119 -579
-75 -253 -126 -377 -221 -545 -22 -38 -50 -88 -62 -110 -12 -22 -27 -46 -33
-54 -31 -38 -170 -308 -214 -416 -24 -57 -48 -164 -57 -245 -10 -100 26 -287
75 -390 17 -36 27 -56 24 -45 -4 11 -13 70 -20 130 -18 150 1 365 37 420 3 6
9 23 13 38 12 52 97 220 181 359 5 9 33 56 60 104 28 48 62 108 77 133 101
173 180 392 214 596 7 44 20 121 28 170 8 50 17 151 21 225 3 74 11 167 16
205 6 39 9 95 7 125 l-3 55 -8 -50z"/>
<path d="M4257 5135 c-4 -82 -12 -181 -17 -220 -5 -38 -12 -117 -15 -175 -6
-97 -25 -216 -61 -365 -32 -137 -43 -174 -65 -217 -5 -10 -9 -24 -9 -31 0 -14
-140 -294 -178 -357 -12 -19 -31 -53 -43 -74 -12 -22 -28 -46 -35 -54 -8 -7
-14 -18 -14 -23 0 -5 -15 -32 -34 -61 -32 -52 -82 -152 -123 -253 -48 -115
-56 -158 -61 -305 -3 -132 -1 -154 23 -249 15 -57 33 -117 41 -135 l15 -31 -6
30 c-14 74 -26 236 -21 295 10 117 70 317 126 420 11 19 29 55 40 80 12 24 25
47 29 50 4 3 24 34 45 70 21 36 50 85 66 110 16 25 34 54 40 65 5 11 25 45 44
75 95 153 150 297 196 522 l30 146 -2 419 c-3 350 -4 394 -11 268z"/>
<path d="M4061 5202 c-13 -31 -31 -78 -42 -104 -10 -26 -19 -52 -19 -58 0 -6
-12 -37 -26 -68 -15 -31 -35 -75 -45 -98 -11 -23 -19 -45 -19 -49 0 -9 -182
-373 -220 -440 -16 -27 -37 -66 -48 -85 -46 -83 -97 -169 -157 -265 -25 -38
-50 -81 -57 -95 -7 -14 -20 -36 -29 -50 -9 -14 -35 -61 -57 -105 -166 -333
-172 -551 -23 -813 31 -54 32 -49 3 39 -23 74 -26 101 -26 219 0 109 4 149 21
208 40 133 99 264 191 423 15 25 45 77 66 115 22 38 43 71 47 74 11 9 143 262
185 355 14 33 32 74 40 90 7 17 19 48 27 70 8 22 30 83 49 135 20 52 46 129
58 170 12 41 32 109 45 150 13 41 26 86 28 100 3 14 12 50 21 80 8 30 14 55
12 57 -1 1 -13 -23 -25 -55z"/>
<path d="M4005 5239 c-4 -6 -5 -12 -2 -15 2 -3 7 2 10 11 7 17 1 20 -8 4z"/>
<path d="M4329 4945 c4 -354 -8 -545 -45 -710 -42 -184 -62 -234 -195 -497
-10 -20 -23 -39 -28 -42 -5 -3 -21 -29 -36 -58 -15 -29 -38 -67 -51 -84 -13
-17 -24 -35 -24 -41 0 -5 -8 -18 -17 -29 -38 -43 -136 -237 -171 -341 -60
-173 -65 -441 -12 -609 17 -55 18 -56 12 -14 -26 171 20 474 92 608 8 15 27
52 41 82 15 30 42 80 61 110 18 30 37 62 40 70 4 8 18 29 31 46 13 17 23 35
23 41 0 5 9 18 20 28 11 10 20 22 20 27 0 5 20 39 43 76 52 80 137 228 137
238 0 4 8 26 18 48 32 72 66 180 73 231 3 28 14 97 24 155 18 110 16 316 -5
460 -5 36 -14 126 -20 200 -5 74 -14 160 -20 190 -5 30 -11 71 -13 90 -1 19 0
-104 2 -275z"/>
<path d="M4132 5210 c0 -19 2 -27 5 -17 2 9 2 25 0 35 -3 9 -5 1 -5 -18z"/>
<path d="M3920 5205 c-7 -9 -10 -18 -7 -21 3 -3 10 4 17 15 13 25 8 27 -10 6z"/>
<path d="M3750 5185 c-13 -14 -22 -27 -19 -29 2 -2 14 10 27 25 29 36 24 38
-8 4z"/>
<path d="M3790 5133 c-34 -43 -101 -120 -148 -172 -48 -52 -107 -117 -132
-145 -56 -61 -81 -88 -147 -159 -47 -49 -199 -230 -238 -282 -8 -11 -25 -33
-38 -50 -12 -16 -36 -50 -52 -75 -17 -25 -33 -47 -36 -50 -6 -5 -17 -24 -71
-124 -28 -51 -84 -186 -108 -259 -19 -57 -22 -89 -22 -205 0 -124 3 -143 26
-199 25 -60 95 -171 122 -194 8 -6 5 6 -6 29 -49 100 -55 132 -55 282 1 133 3
152 29 230 16 47 37 103 47 125 82 178 107 225 133 254 9 10 16 21 16 24 0 7
57 96 95 147 11 15 38 54 60 86 22 32 46 66 54 74 15 17 140 183 210 279 25
35 53 71 61 81 8 10 23 29 32 42 9 13 40 54 67 91 28 37 51 71 51 74 0 4 7 13
16 22 17 17 105 151 99 151 -2 0 -31 -35 -65 -77z"/>
<path d="M3925 5073 c-39 -76 -73 -140 -76 -143 -4 -3 -16 -23 -28 -45 -12
-22 -35 -62 -52 -90 -16 -27 -33 -59 -38 -70 -5 -12 -16 -27 -25 -34 -9 -7
-16 -19 -16 -26 0 -8 -11 -27 -25 -43 -14 -17 -25 -33 -25 -36 0 -3 -17 -31
-37 -62 -42 -63 -37 -56 -112 -174 -63 -99 -116 -181 -194 -302 -32 -48 -57
-91 -57 -96 0 -4 -16 -39 -37 -77 -44 -85 -82 -178 -93 -225 -4 -19 -15 -62
-24 -95 -22 -83 -20 -185 5 -270 23 -74 65 -170 86 -195 7 -8 19 -24 27 -35 8
-11 3 13 -11 55 -39 111 -44 299 -13 419 37 139 117 308 247 523 162 266 289
490 322 568 6 14 15 32 20 40 13 23 93 199 125 275 7 17 25 55 40 85 14 30 26
60 26 66 0 6 9 32 21 58 11 26 19 51 17 57 -2 5 -35 -53 -73 -128z"/>
<path d="M3861 5110 c-23 -34 -41 -65 -41 -70 0 -5 -6 -13 -13 -17 -12 -7 -62
-75 -117 -157 -8 -13 -22 -30 -30 -38 -8 -9 -33 -41 -55 -72 -22 -31 -43 -56
-47 -56 -4 0 -8 -4 -8 -10 0 -5 -30 -49 -67 -98 -38 -49 -77 -101 -88 -116
-11 -16 -29 -40 -41 -55 -11 -14 -36 -48 -54 -76 -19 -27 -36 -52 -39 -55 -6
-5 -96 -140 -118 -175 -23 -39 -51 -91 -88 -165 -69 -138 -61 -118 -110 -298
-25 -88 -19 -195 14 -293 33 -98 60 -150 101 -199 l30 -35 -32 80 c-31 78 -32
84 -32 230 0 142 2 155 31 240 47 136 105 267 130 293 7 7 13 17 13 21 0 9
104 185 121 204 5 7 33 48 61 92 29 44 79 123 113 175 53 82 122 190 162 255
7 11 31 52 53 90 22 39 51 88 65 110 67 109 138 245 131 252 -2 3 -23 -23 -45
-57z"/>
<path d="M4108 5123 c-10 -28 -18 -59 -18 -67 0 -19 -27 -104 -40 -128 -6 -10
-10 -26 -10 -37 0 -10 -7 -38 -16 -62 -9 -24 -22 -64 -29 -89 -16 -57 -52
-156 -71 -197 -7 -17 -14 -36 -14 -41 0 -6 -7 -23 -15 -39 -8 -15 -27 -57 -43
-93 -43 -97 -47 -106 -113 -230 -34 -63 -67 -122 -74 -130 -7 -8 -21 -31 -30
-50 -10 -19 -21 -37 -24 -40 -3 -3 -11 -14 -17 -25 -6 -11 -25 -46 -43 -78
-59 -107 -123 -232 -138 -272 -46 -121 -77 -282 -68 -350 12 -94 37 -200 57
-245 33 -74 62 -129 65 -126 2 2 -3 25 -11 52 -32 110 -36 136 -36 241 0 93 5
127 30 214 16 57 36 118 44 134 8 17 26 57 41 90 15 33 31 67 36 75 5 8 20 35
34 60 14 25 29 52 34 60 35 57 101 173 101 178 0 3 6 13 14 21 19 22 128 238
166 331 70 171 147 451 170 620 4 30 15 89 24 131 10 42 16 92 14 110 -3 34
-3 34 -20 -18z"/>
<path d="M3585 5114 c-22 -19 -67 -54 -100 -76 -33 -23 -64 -47 -68 -55 -4 -7
-12 -13 -17 -13 -11 0 -98 -64 -260 -189 -167 -130 -385 -345 -434 -430 -6
-10 -19 -30 -28 -45 -46 -68 -65 -103 -116 -216 -38 -85 -75 -257 -70 -329 10
-130 62 -257 141 -343 l48 -53 -26 51 c-114 228 -81 498 101 814 15 25 30 47
35 48 5 2 9 7 9 12 0 13 91 141 135 190 94 103 328 333 425 417 58 50 123 107
144 127 22 20 44 36 48 36 4 0 8 6 8 14 0 8 8 17 18 21 14 4 61 56 50 55 -2
-1 -21 -17 -43 -36z"/>
<path d="M3604 5042 c-118 -112 -148 -139 -254 -232 -131 -115 -311 -298 -395
-401 -102 -126 -115 -143 -115 -151 0 -4 -11 -23 -24 -42 -29 -44 -98 -184
-125 -256 -11 -30 -28 -103 -38 -163 -17 -102 -17 -111 0 -192 21 -100 65
-199 114 -252 19 -21 33 -33 31 -28 -2 6 -10 30 -20 55 -52 142 -62 253 -33
363 8 32 15 66 15 76 0 23 33 111 66 174 13 26 24 52 24 58 0 9 63 122 98 175
58 89 87 132 99 144 7 8 52 63 99 123 47 59 90 107 95 107 5 0 9 6 9 13 0 6
19 31 43 54 23 23 71 74 107 113 36 40 81 89 100 109 60 63 200 221 200 226 0
14 -22 -2 -96 -73z"/>
<path d="M3450 5096 c-8 -8 -29 -23 -47 -33 -108 -61 -302 -178 -323 -193 -14
-10 -52 -36 -85 -56 -33 -21 -62 -40 -65 -44 -3 -3 -41 -32 -85 -65 -129 -96
-264 -240 -342 -365 -60 -97 -82 -144 -119 -260 -30 -94 -34 -116 -34 -217 0
-99 3 -121 27 -180 30 -76 98 -186 139 -223 l26 -25 -25 50 c-14 28 -30 61
-35 75 -6 14 -16 41 -23 60 -9 23 -14 79 -13 165 0 106 4 142 22 197 12 37 22
72 22 78 0 32 141 296 167 313 7 4 13 13 13 20 0 20 162 198 251 277 134 118
158 138 309 250 34 25 74 55 89 68 16 12 34 22 39 22 6 0 15 6 19 13 4 7 29
28 56 47 26 18 47 35 47 37 0 8 -17 2 -30 -11z"/>
<path d="M3294 5074 c-18 -14 -18 -15 4 -4 12 6 22 13 22 15 0 8 -5 6 -26 -11z"/>
<path d="M3236 5051 c-4 -5 -50 -31 -104 -59 -123 -62 -212 -110 -285 -153
-32 -19 -66 -38 -75 -44 -10 -5 -32 -20 -49 -32 -17 -13 -34 -23 -38 -23 -3 0
-37 -24 -74 -54 -265 -212 -411 -475 -411 -741 0 -99 12 -159 48 -235 28 -58
131 -194 140 -185 3 3 -2 13 -11 23 -10 10 -17 22 -17 27 0 4 -12 33 -27 64
-27 54 -28 61 -28 226 0 161 1 174 28 250 55 153 114 261 207 377 56 69 184
198 197 198 2 0 18 14 36 31 30 30 42 40 162 118 33 22 71 48 85 58 14 10 40
26 59 36 30 16 68 41 166 107 20 14 24 20 13 20 -9 0 -19 -4 -22 -9z"/>
<path d="M8821 4624 c0 -11 3 -14 6 -6 3 7 2 16 -1 19 -3 4 -6 -2 -5 -13z"/>
<path d="M8892 4570 c0 -14 2 -19 5 -12 2 6 2 18 0 25 -3 6 -5 1 -5 -13z"/>
<path d="M8942 3840 c0 -14 2 -19 5 -12 2 6 2 18 0 25 -3 6 -5 1 -5 -13z"/>
<path d="M8723 3805 c0 -27 2 -38 4 -22 2 15 2 37 0 50 -2 12 -4 0 -4 -28z"/>
<path d="M8892 3785 c0 -16 2 -22 5 -12 2 9 2 23 0 30 -3 6 -5 -1 -5 -18z"/>
<path d="M8950 3806 c0 -22 35 -157 56 -211 12 -33 49 -112 80 -175 57 -112
58 -117 62 -210 3 -77 0 -107 -17 -157 -12 -34 -21 -68 -21 -75 0 -7 -6 -25
-14 -40 -8 -14 -19 -43 -26 -65 -7 -21 -23 -60 -35 -88 -12 -27 -25 -57 -28
-65 -33 -77 -190 -345 -226 -387 -6 -7 -37 -43 -69 -81 -31 -38 -84 -93 -117
-121 -33 -29 -64 -59 -68 -67 -4 -8 -15 -14 -22 -14 -8 0 -15 -4 -15 -9 0 -4
-27 -25 -60 -46 -108 -68 -41 -64 86 5 136 75 209 125 275 193 21 20 42 37 48
37 6 0 11 5 11 11 0 6 20 31 44 56 24 25 52 55 62 67 24 26 114 155 114 164 0
3 6 13 14 21 17 20 116 208 116 221 0 5 11 33 24 62 44 98 69 218 64 305 -7
100 -30 149 -123 266 -41 51 -80 103 -87 117 -7 14 -23 38 -35 53 -13 16 -23
34 -23 41 0 7 -9 30 -19 52 -11 22 -22 57 -26 79 -7 38 -24 80 -25 61z"/>
<path d="M8768 3700 c-9 -142 -25 -239 -49 -300 -20 -52 -83 -156 -128 -210
-11 -14 -25 -30 -29 -36 -5 -5 -29 -39 -53 -75 -24 -35 -46 -66 -49 -69 -9 -7
-90 -152 -135 -240 -21 -41 -42 -82 -46 -90 -4 -8 -44 -89 -89 -180 -85 -174
-92 -186 -127 -237 -13 -17 -23 -34 -23 -38 0 -3 -35 -49 -77 -101 -43 -52
-77 -98 -76 -102 1 -4 17 -9 35 -12 28 -5 41 0 88 39 70 57 116 106 193 206
60 78 74 98 105 160 8 17 21 37 28 45 7 8 86 161 175 340 90 179 178 351 196
383 18 32 39 78 47 102 23 65 34 225 27 375 l-7 135 -6 -95z"/>
<path d="M9020 3769 c0 -16 42 -119 61 -149 5 -8 15 -26 22 -39 6 -14 20 -34
29 -45 10 -12 40 -50 68 -86 28 -36 57 -74 66 -85 9 -11 27 -42 42 -70 25 -47
26 -59 26 -180 0 -107 -4 -143 -23 -205 -34 -114 -96 -250 -157 -350 -18 -30
-37 -62 -40 -70 -61 -127 -310 -391 -443 -467 -25 -15 -48 -30 -51 -34 -3 -3
-23 -16 -45 -27 -50 -26 -43 -27 26 -3 104 37 136 50 175 72 72 41 199 128
239 164 69 61 145 137 145 144 0 4 10 17 23 28 12 11 30 31 40 44 28 35 147
221 157 244 79 181 120 319 120 400 0 50 -36 161 -68 207 -16 24 -85 97 -152
163 -67 66 -127 127 -134 135 -26 30 -71 106 -98 165 -15 33 -28 53 -28 44z"/>
<path d="M8662 3740 c0 -19 2 -27 5 -17 2 9 2 25 0 35 -3 9 -5 1 -5 -18z"/>
<path d="M9090 3769 c0 -12 25 -64 54 -109 16 -25 93 -110 170 -190 158 -162
177 -186 206 -262 60 -152 27 -340 -102 -593 -43 -86 -107 -188 -120 -193 -4
-2 -8 -9 -8 -16 0 -34 -292 -314 -375 -360 -67 -37 -141 -86 -130 -86 17 0
137 45 190 70 64 31 187 111 247 161 26 21 49 39 52 39 11 0 191 192 198 210
4 11 12 20 17 20 5 0 22 21 37 48 16 26 33 55 39 64 26 44 85 161 85 169 0 5
10 31 22 57 20 41 23 63 23 182 -1 126 -2 139 -27 190 -35 70 -122 160 -246
252 -99 74 -262 227 -262 245 0 6 -7 16 -16 24 -8 7 -24 29 -34 48 -11 20 -19
33 -20 30z"/>
<path d="M9185 3725 c40 -62 130 -149 250 -240 94 -71 172 -140 229 -205 25
-28 65 -115 81 -176 20 -72 16 -173 -9 -284 -24 -104 -125 -305 -204 -403 -64
-79 -197 -215 -246 -252 -15 -11 -33 -26 -41 -33 -17 -16 -106 -76 -126 -86
-38 -18 -143 -86 -134 -86 14 0 83 25 91 33 4 4 14 7 21 7 12 0 39 11 133 54
208 96 485 354 589 547 71 133 93 209 94 334 1 107 0 112 -35 185 -38 81 -106
158 -193 221 -71 52 -186 129 -190 129 -3 0 -38 23 -79 50 -66 45 -156 129
-231 215 l-26 30 26 -40z"/>
<path d="M8712 3720 c0 -14 2 -19 5 -12 2 6 2 18 0 25 -3 6 -5 1 -5 -13z"/>
<path d="M8841 3555 c-1 -171 -4 -197 -26 -265 -23 -73 -34 -95 -125 -265 -24
-44 -104 -201 -179 -348 -159 -312 -164 -323 -185 -346 -9 -10 -16 -20 -16
-24 0 -28 -234 -297 -258 -297 -23 0 -3 -18 28 -25 28 -6 44 1 105 47 72 55
201 179 245 237 14 19 33 41 43 49 9 9 17 22 17 28 0 6 7 17 16 25 8 7 24 29
35 48 11 20 28 50 38 67 26 43 109 194 123 224 6 14 34 72 61 130 130 277 161
374 154 473 -4 60 -10 86 -44 227 -9 36 -19 97 -23 135 -5 51 -7 20 -9 -120z"/>
<path d="M8900 3720 c0 -37 39 -232 65 -325 28 -97 6 -233 -62 -385 -9 -19
-25 -55 -35 -80 -29 -66 -172 -353 -217 -437 -60 -112 -80 -141 -159 -241 -89
-113 -149 -174 -224 -231 -32 -24 -55 -47 -52 -52 26 -42 215 80 379 246 112
112 163 180 269 355 49 80 139 275 179 385 76 213 72 306 -21 470 -49 87 -86
182 -102 258 -12 58 -20 73 -20 37z"/>
<path d="M8651 3684 c0 -11 3 -14 6 -6 3 7 2 16 -1 19 -3 4 -6 -2 -5 -13z"/>
<path d="M9321 3673 c7 -12 15 -20 18 -17 3 2 -3 12 -13 22 -17 16 -18 16 -5
-5z"/>
<path d="M8630 3619 c-14 -60 -52 -134 -97 -193 -36 -48 -126 -125 -168 -146
-11 -6 -40 -24 -65 -40 -25 -16 -62 -40 -84 -52 -21 -13 -46 -27 -55 -33 -43
-26 -193 -176 -216 -217 -54 -93 -125 -223 -125 -229 0 -3 -12 -33 -26 -65
-14 -33 -32 -72 -39 -89 -7 -16 -20 -48 -28 -70 -38 -104 -56 -145 -71 -166
-9 -13 -16 -29 -16 -36 0 -16 -75 -150 -112 -202 -27 -36 -23 -41 37 -41 65 0
77 9 147 118 23 37 45 69 49 72 7 6 109 190 109 198 0 3 12 30 26 61 14 31 33
74 43 96 10 22 33 71 51 110 18 38 44 92 57 120 12 27 29 59 35 70 117 185
204 288 341 401 85 69 139 131 174 199 23 44 57 164 49 172 -2 3 -10 -15 -16
-38z"/>
<path d="M9367 3630 c10 -11 19 -20 21 -20 1 0 -2 9 -8 20 -6 11 -15 20 -20
20 -6 0 -2 -9 7 -20z"/>
<path d="M8686 3577 c-42 -152 -85 -213 -246 -357 -63 -56 -109 -102 -195
-196 -23 -24 -27 -31 -88 -134 -42 -71 -97 -177 -136 -265 -10 -22 -30 -66
-45 -97 -14 -32 -38 -84 -52 -115 -14 -32 -30 -65 -35 -73 -4 -8 -18 -33 -29
-55 -11 -22 -26 -49 -33 -60 -7 -11 -28 -44 -46 -72 -18 -29 -37 -53 -42 -53
-5 0 -9 -6 -9 -14 0 -7 -7 -20 -16 -27 -15 -12 -14 -14 7 -20 54 -15 74 -9
117 34 127 128 177 204 315 482 63 127 116 235 118 240 4 11 100 184 122 220
16 27 80 119 87 125 3 3 10 12 15 21 6 9 35 49 66 90 30 41 65 90 77 111 32
51 73 196 70 242 -3 37 -3 37 -22 -27z"/>
<path d="M9400 3607 c0 -3 12 -12 26 -22 15 -9 23 -12 20 -6 -7 11 -46 35 -46
28z"/>
<path d="M9460 3561 c0 -6 6 -11 13 -11 8 0 22 -9 32 -20 10 -11 23 -20 28
-20 6 0 25 -11 43 -25 18 -14 35 -25 38 -25 9 0 159 -116 196 -151 81 -79 132
-171 156 -287 17 -79 17 -88 0 -175 -24 -128 -82 -276 -128 -327 -10 -11 -18
-22 -18 -25 0 -16 -117 -159 -173 -211 -81 -76 -204 -176 -242 -198 -16 -9
-48 -28 -70 -41 -22 -14 -50 -29 -62 -35 -11 -5 -24 -14 -28 -20 -5 -9 -2 -9
11 -2 11 5 33 12 50 15 40 8 220 96 304 148 190 121 372 305 449 458 80 155
97 320 46 440 -61 147 -127 209 -400 378 -11 7 -38 22 -60 34 -22 12 -42 25
-45 29 -3 3 -18 13 -35 22 -16 8 -47 25 -67 37 -21 13 -38 18 -38 12z"/>
<path d="M8535 3549 c-4 -6 -5 -12 -2 -15 2 -3 7 2 10 11 7 17 1 20 -8 4z"/>
<path d="M8469 3443 c-13 -16 -12 -17 4 -4 9 7 17 15 17 17 0 8 -8 3 -21 -13z"/>
<path d="M8210 3270 c-32 -19 -170 -80 -182 -80 -7 0 -24 -9 -38 -20 -14 -11
-29 -20 -35 -20 -10 0 -61 -34 -122 -79 -31 -23 -126 -134 -150 -175 -28 -48
-133 -266 -133 -276 0 -6 -9 -28 -20 -50 -11 -22 -20 -49 -20 -60 0 -12 -9
-39 -19 -61 -11 -22 -23 -54 -26 -72 -4 -18 -11 -36 -15 -42 -4 -5 -17 -35
-28 -66 -11 -31 -43 -100 -71 -153 l-50 -96 57 6 c31 4 65 14 76 23 30 26 73
95 133 216 64 126 85 175 143 330 43 112 152 329 184 364 9 10 16 21 16 25 0
25 179 206 204 206 3 0 25 15 49 33 24 17 53 37 63 44 22 14 7 16 -16 3z"/>
<path d="M7906 3211 c-3 -5 -23 -12 -43 -16 -21 -4 -54 -15 -73 -24 -19 -10
-66 -33 -104 -52 -166 -82 -295 -264 -376 -529 -12 -41 -33 -106 -46 -145 -13
-38 -24 -77 -24 -86 0 -9 -8 -38 -19 -65 -10 -27 -24 -67 -31 -89 -7 -22 -28
-72 -46 -112 -44 -92 -43 -97 4 -89 20 3 47 6 59 6 23 0 29 9 98 141 61 117
123 271 160 400 7 26 20 60 29 77 9 17 16 36 16 41 0 6 23 59 52 118 94 196
179 300 320 392 35 23 55 41 46 41 -9 0 -19 -4 -22 -9z"/>
<path d="M5000 2196 c-66 -25 -146 -68 -180 -96 l-25 -20 28 10 c15 5 41 17
58 26 73 37 181 58 309 58 69 1 141 -2 160 -6 l35 -7 -30 13 c-119 52 -256 61
-355 22z"/>
<path d="M5034 2105 c-34 -6 -80 -22 -103 -33 -23 -12 -48 -22 -55 -22 -7 0
-23 -9 -36 -20 -13 -11 -27 -20 -32 -20 -5 0 -26 -11 -46 -25 -20 -14 -32 -25
-26 -25 5 0 14 4 20 9 27 25 181 71 337 101 94 18 142 22 237 18 66 -2 118 -3
116 -1 -1 2 -40 10 -87 18 -99 17 -239 18 -325 0z"/>
<path d="M5160 2020 c-14 -4 -47 -8 -74 -9 -48 -1 -202 -45 -262 -74 -16 -8
-64 -32 -107 -53 -42 -20 -76 -39 -74 -40 1 -2 41 11 87 27 47 17 99 35 115
39 193 55 355 81 545 88 l145 5 -70 13 c-77 14 -266 17 -305 4z"/>
<path d="M5330 1940 c-230 -24 -293 -32 -313 -40 -12 -5 -53 -16 -92 -26 -38
-9 -74 -21 -79 -26 -6 -4 -16 -8 -24 -8 -12 0 -142 -47 -208 -76 -17 -8 -42
-18 -55 -23 -39 -16 4 -13 53 3 236 78 533 142 763 167 55 6 138 16 185 23
l85 14 -120 -1 c-66 0 -154 -3 -195 -7z"/>
<path d="M5618 1885 c-3 -3 -54 -10 -114 -15 -130 -12 -336 -44 -456 -71 -48
-10 -94 -19 -103 -19 -10 0 -56 -11 -104 -25 -47 -15 -120 -35 -161 -46 -41
-11 -102 -30 -135 -41 -42 -14 -99 -22 -190 -26 -106 -4 -123 -7 -95 -15 64
-17 266 12 525 75 44 11 109 24 144 29 36 5 78 13 95 18 17 5 60 14 96 21 111
19 271 50 370 72 52 11 114 24 138 28 52 8 66 20 25 20 -16 0 -32 -2 -35 -5z"/>
<path d="M4600 1830 c-13 -8 -13 -10 2 -10 9 0 20 5 23 10 8 13 -5 13 -25 0z"/>
<path d="M5675 1820 c-179 -34 -221 -42 -310 -62 -49 -11 -124 -26 -165 -33
-41 -7 -104 -18 -140 -25 -62 -11 -224 -45 -355 -76 -33 -7 -89 -18 -125 -24
-36 -5 -85 -14 -110 -19 -25 -6 -90 -11 -145 -12 -66 -1 -92 -4 -75 -9 43 -14
192 -11 296 6 54 8 128 19 164 23 36 5 110 18 165 29 55 11 136 28 180 36 44
9 127 27 185 41 58 14 130 30 160 35 30 5 63 14 75 19 20 11 144 43 240 63 28
6 59 14 70 18 l20 9 -20 -1 c-11 0 -60 -8 -110 -18z"/>
<path d="M5725 1759 c-33 -11 -87 -26 -120 -34 -136 -31 -164 -38 -250 -60
-159 -41 -270 -65 -296 -65 -15 0 -39 -4 -55 -9 -52 -16 -128 -31 -199 -41
-38 -5 -101 -17 -140 -26 -52 -12 -121 -17 -270 -18 -187 -1 -203 1 -248 22
-64 29 -84 28 -27 -2 68 -36 231 -60 354 -53 297 17 709 94 996 187 30 10 82
26 115 36 33 9 64 21 70 26 5 4 17 8 26 8 9 0 45 11 80 25 76 29 50 31 -36 4z"/>
<path d="M5940 1750 c-9 -6 -10 -10 -3 -10 6 0 15 5 18 10 8 12 4 12 -15 0z"/>
<path d="M5898 1733 c7 -3 16 -2 19 1 4 3 -2 6 -13 5 -11 0 -14 -3 -6 -6z"/>
<path d="M4480 1720 c-18 -12 -2 -12 25 0 13 6 15 9 5 9 -8 0 -22 -4 -30 -9z"/>
<path d="M5805 1710 c-50 -18 -314 -101 -390 -122 -22 -7 -44 -15 -50 -19 -5
-4 -32 -12 -60 -17 -27 -6 -68 -16 -90 -22 -22 -6 -67 -16 -100 -21 -33 -5
-71 -13 -85 -18 -42 -16 -128 -31 -178 -31 -26 0 -74 -7 -107 -16 -39 -10
-127 -17 -250 -20 -157 -5 -201 -3 -255 11 -36 9 -81 20 -101 24 -39 9 -111
45 -149 76 l-25 20 24 -27 c14 -16 29 -28 34 -28 6 0 18 -6 26 -14 61 -55 336
-111 501 -103 161 9 368 34 435 52 33 10 83 21 110 25 77 12 290 74 387 112
26 10 53 18 60 18 7 1 31 9 53 20 22 11 44 19 48 20 14 0 222 83 232 91 15 14
-16 9 -70 -11z"/>
<path d="M6010 1710 c-19 -11 -41 -19 -48 -20 -7 0 -38 -11 -68 -25 -30 -14
-60 -25 -67 -25 -7 -1 -30 -9 -52 -20 -22 -11 -45 -19 -52 -20 -7 0 -37 -11
-67 -25 -30 -14 -61 -25 -69 -25 -8 0 -28 -7 -45 -15 -17 -9 -52 -22 -79 -29
-26 -7 -68 -20 -93 -29 -147 -51 -322 -94 -460 -113 -325 -45 -347 -47 -495
-31 -212 23 -316 52 -397 108 -14 11 -29 19 -33 19 -16 0 19 -31 63 -56 176
-99 477 -137 777 -98 136 17 324 57 403 85 30 11 62 19 71 19 9 0 35 9 57 19
22 11 54 23 70 26 28 6 57 17 169 63 28 12 84 35 125 52 41 17 98 42 125 55
28 13 85 40 128 59 42 19 77 37 77 40 0 8 0 8 -40 -14z"/>
<path d="M6060 1660 c-19 -11 -31 -19 -27 -20 11 0 67 29 67 35 0 7 -1 7 -40
-15z"/>
<path d="M3950 1635 c19 -19 36 -35 39 -35 3 0 -10 16 -29 35 -19 19 -36 35
-39 35 -3 0 10 -16 29 -35z"/>
<path d="M5955 1615 c-27 -13 -70 -32 -95 -43 -25 -11 -92 -40 -150 -66 -58
-25 -112 -46 -120 -46 -9 0 -24 -6 -35 -14 -24 -16 -349 -126 -374 -126 -10 0
-35 -7 -54 -15 -20 -8 -85 -22 -144 -31 -59 -9 -133 -20 -163 -25 -217 -35
-488 -14 -670 52 -117 43 -175 79 -272 168 -32 30 -58 51 -58 47 0 -24 179
-178 222 -192 13 -3 34 -15 48 -24 30 -22 112 -50 230 -80 146 -37 464 -37
634 0 137 30 298 70 341 86 117 41 182 65 210 78 38 17 122 56 200 91 124 57
306 149 311 157 8 12 -7 8 -61 -17z"/>
<path d="M6139 1623 c-13 -17 -13 -17 6 -3 11 8 22 16 24 17 2 2 0 3 -6 3 -6
0 -17 -8 -24 -17z"/>
<path d="M3915 1590 c21 -22 41 -40 44 -40 3 0 -13 18 -34 40 -21 22 -41 40
-44 40 -3 0 13 -18 34 -40z"/>
<path d="M3820 1614 c0 -6 19 -28 43 -49 l42 -40 -40 45 c-22 25 -41 47 -42
49 -2 2 -3 0 -3 -5z"/>
<path d="M4138 1593 c7 -3 16 -2 19 1 4 3 -2 6 -13 5 -11 0 -14 -3 -6 -6z"/>
<path d="M6050 1580 c-14 -10 -36 -22 -49 -25 -23 -6 -279 -126 -353 -165 -20
-11 -43 -20 -50 -20 -7 0 -26 -7 -43 -16 -63 -35 -296 -119 -354 -129 -22 -4
-43 -11 -46 -15 -3 -5 -31 -12 -63 -16 -31 -3 -61 -10 -67 -14 -5 -4 -53 -15
-106 -24 -128 -24 -521 -18 -609 9 -30 9 -68 20 -85 25 -62 17 -151 53 -195
78 -54 31 -112 70 -120 80 -3 4 -34 34 -70 67 l-64 60 43 -52 c43 -53 137
-137 180 -162 14 -7 45 -25 70 -38 25 -14 51 -29 56 -32 17 -11 144 -49 245
-73 83 -20 121 -23 295 -23 171 1 215 4 305 24 109 24 223 54 275 72 17 6 50
18 75 26 25 9 64 25 87 35 24 10 46 18 49 18 4 0 32 12 63 26 139 65 248 116
266 127 11 6 56 30 100 54 72 38 140 76 199 110 14 9 16 13 6 13 -8 0 -26 -9
-40 -20z"/>
<path d="M4037 1569 c12 -12 24 -21 27 -18 2 2 -8 13 -22 23 l-27 19 22 -24z"/>
<path d="M3795 1550 c10 -11 20 -20 23 -20 3 0 -3 9 -13 20 -10 11 -20 20 -23
20 -3 0 3 -9 13 -20z"/>
<path d="M6045 1499 c-27 -16 -57 -32 -65 -35 -8 -3 -22 -10 -30 -15 -44 -27
-420 -207 -500 -239 -133 -54 -130 -53 -230 -84 -169 -52 -298 -75 -460 -82
-250 -10 -448 17 -618 85 -77 31 -212 109 -247 143 -16 17 -43 39 -60 50 -24
16 74 -82 110 -110 40 -31 110 -71 165 -96 36 -15 84 -37 108 -47 23 -11 51
-19 61 -19 10 0 38 -7 62 -15 73 -26 175 -36 367 -36 164 0 194 3 295 27 233
56 391 115 648 244 124 62 154 78 291 157 184 107 178 104 162 102 -5 0 -31
-14 -59 -30z"/>
<path d="M3762 1496 c7 -8 15 -12 17 -11 5 6 -10 25 -20 25 -5 0 -4 -6 3 -14z"/>
<path d="M3936 1485 c14 -14 28 -25 31 -25 4 0 -4 11 -17 25 -13 14 -27 25
-31 25 -5 0 3 -11 17 -25z"/>
<path d="M3700 1476 c0 -2 8 -10 18 -17 15 -13 16 -12 3 4 -13 16 -21 21 -21
13z"/>
<path d="M3730 1432 c0 -4 12 -19 27 -33 20 -18 23 -19 13 -4 -24 32 -40 47
-40 37z"/>
</g>
</svg>
